<svg width="21" height="21" viewBox="0 0 21 21" fill="none" xmlns="http://www.w3.org/2000/svg">
<path d="M2.49622 3.06894C2.56444 2.84604 2.80051 2.72063 3.02349 2.78883C5.6237 3.58411 12.5786 4.36869 19.3084 1.04378C19.3926 1.00219 19.4839 0.991245 19.5697 1.00665C19.609 1.00588 19.6487 1.0106 19.6878 1.02119C19.7347 1.03382 19.7799 1.05468 19.8211 1.08377C19.9145 1.14945 19.975 1.24885 19.9938 1.35694C20.004 1.41593 20.0018 1.47752 19.9857 1.53762C19.9784 1.56506 19.9683 1.59192 19.9553 1.61772C18.7942 4.08297 17.0246 10.8429 19.3458 17.97C19.418 18.1917 19.2968 18.4298 19.0751 18.502C18.8533 18.5742 18.6151 18.453 18.5429 18.2313C16.5831 12.2142 17.4333 6.45715 18.4816 3.12139L1.72077 19.8764C1.55589 20.0412 1.28855 20.0412 1.12367 19.8764C0.958778 19.7115 0.958778 19.4443 1.12367 19.2795L17.7662 2.64274C11.4391 5.09385 5.28149 4.36222 2.77643 3.59604C2.55345 3.52784 2.42799 3.29185 2.49622 3.06894Z" fill="white" stroke="white" stroke-linecap="round"/>
</svg>
