<svg width="146" height="40" viewBox="0 0 146 40" fill="none" xmlns="http://www.w3.org/2000/svg">
<path fill-rule="evenodd" clip-rule="evenodd" d="M23.1786 0L17.8191 13.8562L2.97283 14.5844L9.87949 20.2002C11.8347 19.8698 13.7771 19.4633 15.7021 18.9874C20.8119 17.8099 25.7736 16.0789 30.5918 14.0033L28.4589 13.8868L23.1786 0ZM41.2857 10.2298C24.5726 20.072 7.8702 21.9404 7.8702 21.9404C6.10039 25.0015 0 30.145 0 30.145C27.0552 27.2462 41.2857 10.2298 41.2857 10.2298ZM42.1293 10.9635C28.1924 24.448 12.3938 30.1787 12.3938 30.1787C11.3914 33.5698 6.66871 40 6.66871 40C32.2886 30.84 42.1293 10.9635 42.1293 10.9635ZM32.2202 25.9023C30.0536 27.9795 27.7425 29.9101 25.3145 31.6866L35.5316 38.3665L32.2202 25.9023Z" fill="white"/>
<path d="M135.095 30.4956C133.161 30.4956 131.398 30.022 129.807 29.0747C128.215 28.1274 126.945 26.8579 125.998 25.2661C125.051 23.6743 124.577 21.9116 124.577 19.978C124.577 18.0444 125.051 16.2866 125.998 14.7046C126.945 13.1128 128.215 11.8433 129.807 10.896C131.398 9.94873 133.161 9.4751 135.095 9.4751C137.028 9.4751 138.786 9.94873 140.368 10.896C141.96 11.8433 143.229 13.1128 144.177 14.7046C145.124 16.2866 145.598 18.0444 145.598 19.978C145.598 21.9116 145.124 23.6743 144.177 25.2661C143.229 26.8579 141.96 28.1274 140.368 29.0747C138.786 30.022 137.028 30.4956 135.095 30.4956ZM135.095 10.1782C133.288 10.1782 131.643 10.6226 130.158 11.5112C128.674 12.3901 127.492 13.5718 126.613 15.0562C125.734 16.5405 125.295 18.1812 125.295 19.978C125.295 21.7847 125.734 23.4302 126.613 24.9146C127.492 26.3892 128.674 27.5708 130.158 28.4595C131.643 29.3384 133.288 29.7778 135.095 29.7778C136.892 29.7778 138.532 29.3384 140.017 28.4595C141.501 27.5708 142.683 26.3892 143.562 24.9146C144.45 23.4302 144.895 21.7847 144.895 19.978C144.895 18.1812 144.45 16.5405 143.562 15.0562C142.683 13.5718 141.501 12.3901 140.017 11.5112C138.532 10.6226 136.892 10.1782 135.095 10.1782ZM135.095 27.3022C133.747 27.3022 132.517 26.9751 131.403 26.3208C130.3 25.6567 129.416 24.7729 128.752 23.6694C128.098 22.5562 127.771 21.3257 127.771 19.978C127.771 18.6304 128.098 17.4048 128.752 16.3013C129.416 15.188 130.3 14.3042 131.403 13.6499C132.517 12.9858 133.747 12.6538 135.095 12.6538C136.433 12.6538 137.653 12.9858 138.757 13.6499C139.87 14.3042 140.759 15.188 141.423 16.3013C142.087 17.4048 142.419 18.6304 142.419 19.978C142.419 21.3257 142.087 22.5562 141.423 23.6694C140.759 24.7729 139.87 25.6567 138.757 26.3208C137.653 26.9751 136.433 27.3022 135.095 27.3022ZM135.095 13.3716C133.874 13.3716 132.761 13.6694 131.755 14.2651C130.759 14.8608 129.963 15.6616 129.367 16.6675C128.771 17.6636 128.474 18.7671 128.474 19.978C128.474 21.1987 128.771 22.312 129.367 23.3179C129.963 24.314 130.759 25.1099 131.755 25.7056C132.761 26.3013 133.874 26.5991 135.095 26.5991C136.306 26.5991 137.409 26.3013 138.405 25.7056C139.411 25.1099 140.212 24.314 140.808 23.3179C141.403 22.312 141.701 21.1987 141.701 19.978C141.701 18.7671 141.403 17.6636 140.808 16.6675C140.212 15.6616 139.411 14.8608 138.405 14.2651C137.409 13.6694 136.306 13.3716 135.095 13.3716Z" fill="white"/>
<path d="M109.284 30.481C108.747 30.481 108.288 30.2905 107.907 29.9097C107.526 29.5288 107.336 29.0698 107.336 28.5327V19.978C107.336 19.48 107.512 19.0356 107.863 18.645C108.283 18.2056 108.762 17.9858 109.299 17.9858L111.101 18.0151H111.525C112.102 18.0151 112.78 18.0151 113.562 18.0151C114.353 18.0151 114.899 18.0151 115.202 18.0151C115.817 18.0151 116.34 17.8101 116.77 17.3999C117.209 16.98 117.453 16.4526 117.502 15.8179C117.492 15.7886 117.487 15.7593 117.487 15.73C117.487 15.0757 117.263 14.5288 116.813 14.0894C116.374 13.6401 115.832 13.4155 115.188 13.4155C114.924 13.4155 114.45 13.4155 113.767 13.4155C113.093 13.4155 112.463 13.4155 111.877 13.4155C111.75 13.4155 111.633 13.4155 111.525 13.4155H111.086L109.284 13.4302C108.757 13.4302 108.298 13.2349 107.907 12.8442C107.517 12.4438 107.321 11.9751 107.321 11.438C107.321 10.9009 107.512 10.4419 107.893 10.061C108.273 9.68018 108.732 9.48975 109.27 9.48975H110.837L113.562 9.50439C113.63 9.49463 113.693 9.48975 113.752 9.48975L115.085 9.50439C115.114 9.49463 115.148 9.48975 115.188 9.48975C115.334 9.48975 115.49 9.49463 115.656 9.50439C117.277 9.4751 118.557 9.94873 119.494 10.9253C119.953 11.3159 120.349 11.7749 120.681 12.3022L120.783 12.4194C120.793 12.439 120.803 12.4585 120.812 12.478C121.359 13.4741 121.623 14.5483 121.604 15.7007C121.613 17.4194 121.057 18.8843 119.934 20.0952C118.732 21.3062 117.15 21.9116 115.188 21.9116L111.232 21.9263V28.5327C111.232 29.0698 111.042 29.5288 110.661 29.9097C110.28 30.2905 109.821 30.481 109.284 30.481ZM109.299 18.7036C108.957 18.7036 108.654 18.8452 108.391 19.1284C108.391 19.1284 108.386 19.1284 108.376 19.1284C108.151 19.3726 108.039 19.6558 108.039 19.978V28.5327C108.039 28.8745 108.161 29.1675 108.405 29.4116C108.649 29.646 108.942 29.7632 109.284 29.7632C109.626 29.7632 109.914 29.646 110.148 29.4116C110.393 29.1675 110.515 28.8745 110.515 28.5327V21.5747C110.515 21.4771 110.549 21.394 110.617 21.3257C110.686 21.2573 110.769 21.2231 110.866 21.2231L115.173 21.1938C116.97 21.1938 118.386 20.6616 119.421 19.5972C120.417 18.5229 120.905 17.2241 120.886 15.7007C120.886 15.7007 120.886 15.6958 120.886 15.686C120.915 14.6802 120.69 13.7329 120.212 12.8442L120.109 12.7271C120.1 12.7173 120.09 12.7026 120.08 12.6831C119.797 12.2144 119.445 11.8091 119.025 11.4673C119.016 11.4575 119.011 11.4478 119.011 11.438C118.64 11.0571 118.2 10.7593 117.692 10.5444C117.194 10.3296 116.511 10.2173 115.642 10.2075C115.632 10.2075 115.627 10.2075 115.627 10.2075C115.51 10.1978 115.393 10.1929 115.275 10.1929C115.246 10.2026 115.217 10.2075 115.188 10.2075H113.752C113.713 10.2075 113.669 10.2124 113.62 10.2222C113.601 10.2222 113.586 10.2222 113.576 10.2222L110.837 10.1929H109.27C108.928 10.1929 108.635 10.3149 108.391 10.5591C108.146 10.8032 108.024 11.0962 108.024 11.438C108.024 11.7798 108.146 12.0776 108.391 12.3315C108.645 12.5854 108.942 12.7124 109.284 12.7124L111.086 12.6978H111.525C111.662 12.6978 111.809 12.6978 111.965 12.6978C112.551 12.6978 113.166 12.6978 113.811 12.6978C114.465 12.6978 114.924 12.6978 115.188 12.6978C116.008 12.6978 116.701 12.9761 117.268 13.5327C117.844 14.0796 118.151 14.7778 118.19 15.6274C118.2 15.6567 118.205 15.6909 118.205 15.73C118.176 16.5894 117.873 17.3022 117.297 17.8687C116.73 18.4351 116.032 18.7183 115.202 18.7183C114.899 18.7183 114.353 18.7183 113.562 18.7183C112.78 18.7183 112.102 18.7183 111.525 18.7183H111.101L109.299 18.7036ZM119.641 30.4224C119.113 30.4224 118.649 30.2319 118.249 29.8511L115.583 27.1704C115.202 26.7505 115.012 26.2915 115.012 25.7935C115.012 25.2856 115.202 24.8218 115.583 24.4019C115.983 24.021 116.442 23.8306 116.96 23.8306C117.487 23.8306 117.951 24.021 118.352 24.4019L121.018 27.0679C121.398 27.4976 121.589 27.9614 121.589 28.4595C121.589 28.9575 121.398 29.4214 121.018 29.8511C120.617 30.2319 120.158 30.4224 119.641 30.4224ZM116.96 24.5337C116.628 24.5337 116.335 24.6558 116.081 24.8999C115.837 25.1636 115.715 25.4614 115.715 25.7935C115.715 26.1255 115.837 26.4185 116.081 26.6724L118.747 29.3384C119.011 29.5825 119.309 29.7046 119.641 29.7046C119.973 29.7046 120.266 29.5825 120.52 29.3384C120.764 29.0845 120.886 28.7915 120.886 28.4595C120.886 28.1274 120.764 27.8345 120.52 27.5806L117.854 24.8999C117.59 24.6558 117.292 24.5337 116.96 24.5337Z" fill="white"/>
<path d="M102.458 13.3423H91.9111C91.374 13.3423 90.915 13.1519 90.5342 12.771C90.1631 12.3901 89.9775 11.9312 89.9775 11.394C89.9775 10.8667 90.1631 10.4126 90.5342 10.0317C90.915 9.65088 91.374 9.46045 91.9111 9.46045H102.458C102.985 9.46045 103.439 9.65088 103.82 10.0317C104.201 10.4126 104.392 10.8667 104.392 11.394C104.392 11.9312 104.201 12.3901 103.82 12.771C103.439 13.1519 102.985 13.3423 102.458 13.3423ZM91.9111 10.1782C91.5693 10.1782 91.2764 10.3003 91.0322 10.5444C90.7979 10.7788 90.6807 11.062 90.6807 11.394C90.6807 11.7358 90.7979 12.0288 91.0322 12.2729C91.2764 12.5073 91.5693 12.6245 91.9111 12.6245H102.458C102.79 12.6245 103.073 12.5073 103.308 12.2729C103.552 12.0288 103.674 11.7358 103.674 11.394C103.674 11.062 103.552 10.7788 103.308 10.5444C103.073 10.3003 102.79 10.1782 102.458 10.1782H91.9111ZM97.1846 30.4956C96.6475 30.4956 96.1885 30.3101 95.8076 29.939C95.4268 29.5581 95.2363 29.0991 95.2363 28.562V19.9927C95.2363 19.4556 95.4268 19.0015 95.8076 18.6304C96.1885 18.2495 96.6475 18.0591 97.1846 18.0591C97.7217 18.0591 98.1807 18.2495 98.5615 18.6304C98.9424 19.0015 99.1328 19.4556 99.1328 19.9927V28.562C99.1328 29.0991 98.9424 29.5581 98.5615 29.939C98.1807 30.3101 97.7217 30.4956 97.1846 30.4956ZM97.1846 18.7622C96.8428 18.7622 96.5498 18.8843 96.3057 19.1284C96.0615 19.3628 95.9395 19.6509 95.9395 19.9927V28.562C95.9395 28.9038 96.0615 29.1968 96.3057 29.4409C96.5498 29.6753 96.8428 29.7925 97.1846 29.7925C97.5264 29.7925 97.8145 29.6753 98.0488 29.4409C98.293 29.1968 98.415 28.9038 98.415 28.562V19.9927C98.415 19.6509 98.293 19.3628 98.0488 19.1284C97.8145 18.8843 97.5264 18.7622 97.1846 18.7622Z" fill="white"/>
<path d="M85.0703 30.4956C84.5332 30.4956 84.0742 30.3052 83.6934 29.9243C83.3125 29.5435 83.1221 29.0845 83.1221 28.5474V21.9409L79.167 21.9263C77.2139 21.9263 75.6318 21.3208 74.4209 20.1099C73.2979 18.8989 72.7412 17.4341 72.751 15.7153C72.7314 14.563 72.9951 13.4888 73.542 12.4927C73.5518 12.4731 73.5615 12.4536 73.5713 12.4341L73.6738 12.3169C74.0059 11.7896 74.4014 11.3306 74.8604 10.9399C75.7979 9.96338 77.082 9.48975 78.7129 9.51904C78.8691 9.50928 79.0205 9.50439 79.167 9.50439C79.2061 9.50439 79.2402 9.50928 79.2695 9.51904H80.6025C80.6611 9.51904 80.7246 9.51904 80.793 9.51904L83.5176 9.50439H85.085C85.6221 9.50439 86.0811 9.69482 86.4619 10.0757C86.8428 10.4565 87.0332 10.9155 87.0332 11.4526C87.0332 11.9897 86.8379 12.4585 86.4473 12.8589C86.0566 13.2495 85.5977 13.4448 85.0703 13.4448L83.2686 13.4302H82.8145C82.7949 13.4302 82.7754 13.4302 82.7559 13.4302C82.1699 13.4302 81.4961 13.4302 80.7344 13.4302C79.9824 13.4302 79.46 13.4302 79.167 13.4302C78.5225 13.4302 77.9756 13.6548 77.5264 14.104C77.0869 14.5435 76.8672 15.0903 76.8672 15.7446C76.8672 15.7739 76.8672 15.8032 76.8672 15.8325C76.9063 16.4673 77.1406 16.9946 77.5703 17.4146C78.0098 17.8247 78.542 18.0298 79.167 18.0298C79.4404 18.0298 79.9434 18.0298 80.6758 18.0298C81.4082 18.0298 82.0674 18.0298 82.6533 18.0298C82.7022 18.0298 82.751 18.0298 82.7998 18.0298H83.2539L85.0557 18.0151C85.5928 18.0151 86.0713 18.23 86.4912 18.6597C86.8428 19.0503 87.0186 19.4946 87.0186 19.9927V28.5474C87.0186 29.0845 86.8281 29.5435 86.4473 29.9243C86.0664 30.3052 85.6074 30.4956 85.0703 30.4956ZM74.1426 12.8589C73.6641 13.7476 73.4395 14.6948 73.4688 15.7007C73.4688 15.7104 73.4688 15.7202 73.4688 15.73C73.4492 17.2437 73.9375 18.5376 74.9336 19.6118C75.9688 20.6763 77.3799 21.2085 79.167 21.2085L83.4883 21.2378C83.5859 21.2378 83.6689 21.272 83.7373 21.3403C83.8057 21.4087 83.8398 21.4917 83.8398 21.5894V28.5474C83.8398 28.8892 83.957 29.1821 84.1914 29.4263C84.4355 29.6606 84.7285 29.7778 85.0703 29.7778C85.4121 29.7778 85.7051 29.6606 85.9492 29.4263C86.1934 29.1821 86.3154 28.8892 86.3154 28.5474V19.9927C86.3154 19.6704 86.2031 19.3872 85.9785 19.1431C85.7051 18.8599 85.3975 18.7183 85.0557 18.7183L83.2686 18.7329H82.7998C82.2236 18.7329 81.5449 18.7329 80.7637 18.7329C79.9824 18.7329 79.4502 18.7329 79.167 18.7329C78.3272 18.7329 77.6191 18.4497 77.043 17.8833C76.4766 17.3169 76.1787 16.604 76.1494 15.7446C76.1494 15.7056 76.1543 15.6714 76.1641 15.6421C76.2031 14.8022 76.5059 14.104 77.0723 13.5474C77.6484 12.9907 78.3467 12.7124 79.167 12.7124C79.4404 12.7124 79.9287 12.7124 80.6318 12.7124C81.3447 12.7124 81.999 12.7124 82.5947 12.7124C82.6729 12.7124 82.7461 12.7124 82.8145 12.7124H83.2686L85.0703 12.7417C85.4121 12.7417 85.7051 12.6147 85.9492 12.3608C86.2031 12.0972 86.3301 11.7944 86.3301 11.4526C86.3301 11.1108 86.208 10.8179 85.9639 10.5737C85.7197 10.3296 85.4268 10.2075 85.085 10.2075L83.5176 10.2222L80.7783 10.2368C80.7686 10.2368 80.7539 10.2368 80.7344 10.2368C80.6856 10.2271 80.6416 10.2222 80.6025 10.2222H79.1816C79.1816 10.2222 79.1768 10.2222 79.167 10.2222C79.1377 10.2222 79.1084 10.2173 79.0791 10.2075C78.9717 10.2173 78.8545 10.2222 78.7275 10.2222C78.7275 10.2222 78.7227 10.2222 78.7129 10.2222C77.8438 10.2319 77.1553 10.3442 76.6475 10.5591C76.1494 10.7739 75.7197 11.0767 75.3584 11.4673C75.3486 11.4673 75.3389 11.4722 75.3291 11.4819C74.9092 11.8237 74.5576 12.229 74.2744 12.6978C74.2647 12.7173 74.2549 12.7319 74.2451 12.7417L74.1426 12.8589ZM78.4932 30.5396H74.7139C74.167 30.5396 73.7031 30.3491 73.3223 29.9683C72.9414 29.5776 72.751 29.1138 72.751 28.5767C72.751 28.0493 72.9414 27.5854 73.3223 27.1851C73.7227 26.8042 74.1865 26.6138 74.7139 26.6138H78.4932C79.0303 26.6138 79.4893 26.8091 79.8701 27.1997C80.251 27.5806 80.4414 28.0396 80.4414 28.5767C80.4414 29.1138 80.251 29.5776 79.8701 29.9683C79.4893 30.3491 79.0303 30.5396 78.4932 30.5396ZM74.7139 27.3315C74.3818 27.3315 74.084 27.4536 73.8203 27.6978C73.5762 27.9517 73.4541 28.2446 73.4541 28.5767C73.4541 28.9185 73.5762 29.2114 73.8203 29.4556C74.0645 29.6997 74.3623 29.8218 74.7139 29.8218H78.4932C78.835 29.8218 79.1279 29.6997 79.3721 29.4556C79.6162 29.2114 79.7383 28.9185 79.7383 28.5767C79.7383 28.2349 79.6162 27.9419 79.3721 27.6978C79.1279 27.4536 78.835 27.3315 78.4932 27.3315H74.7139Z" fill="white"/>
<path d="M67.7266 30.481C66.9258 30.4517 66.3496 30.0806 65.9981 29.3677L59.8897 15.9058L53.7666 29.3677C53.6104 29.7095 53.376 29.9829 53.0635 30.188C52.751 30.3833 52.4092 30.481 52.0381 30.481C51.7647 30.481 51.5059 30.4272 51.2617 30.3198C50.7832 30.0952 50.4463 29.7388 50.251 29.2505C50.0752 28.7622 50.0898 28.2788 50.2949 27.8003L58.0879 10.6616C58.2148 10.3687 58.4102 10.1196 58.6738 9.91455C58.7129 9.88525 58.752 9.85596 58.791 9.82666L58.8057 9.81201C58.835 9.79248 58.8691 9.76807 58.9082 9.73877C58.9277 9.729 58.9522 9.71436 58.9815 9.69482C59.001 9.68506 59.0205 9.67529 59.04 9.66553L59.0547 9.65088C59.084 9.64111 59.1084 9.63135 59.1279 9.62158C59.1377 9.61182 59.1475 9.60693 59.1572 9.60693C59.1768 9.59717 59.1914 9.59229 59.2012 9.59229L59.2305 9.57764C59.2598 9.56787 59.2891 9.55811 59.3184 9.54834C59.6992 9.43115 60.0752 9.43115 60.4463 9.54834C60.4561 9.54834 60.4658 9.55322 60.4756 9.56299C60.5244 9.57275 60.5732 9.5874 60.6221 9.60693C60.6318 9.6167 60.6416 9.62158 60.6514 9.62158C60.6611 9.63135 60.6709 9.63623 60.6807 9.63623C60.7197 9.66553 60.7588 9.68994 60.7979 9.70947L60.8272 9.72412C60.9346 9.78271 61.0322 9.85596 61.1201 9.94385C61.3643 10.1489 61.5498 10.3882 61.6768 10.6616L69.4697 27.8003C69.6748 28.2788 69.6895 28.7622 69.5137 29.2505C69.3184 29.7388 68.9815 30.0952 68.5029 30.3198C68.2588 30.4272 68 30.481 67.7266 30.481ZM59.8897 14.6899C60.0264 14.6899 60.1338 14.7583 60.2119 14.895L66.6426 29.0747C66.8672 29.5239 67.2285 29.7583 67.7266 29.7778C67.8926 29.7778 68.0586 29.7388 68.2246 29.6606C68.5176 29.5239 68.7227 29.3042 68.8398 29.0015C68.957 28.6987 68.9473 28.396 68.8106 28.0933L61.0322 10.9546C60.9541 10.769 60.832 10.6128 60.666 10.4858C60.6563 10.4761 60.6514 10.4712 60.6514 10.4712C60.5928 10.4126 60.5293 10.3638 60.4609 10.3247C60.4609 10.3247 60.4561 10.3247 60.4463 10.3247C60.4268 10.3052 60.4023 10.2905 60.3731 10.2808C60.3633 10.2808 60.3535 10.2759 60.3438 10.2661C60.3438 10.2661 60.3389 10.2661 60.3291 10.2661C60.3096 10.2563 60.2803 10.2466 60.2412 10.2368C60.2412 10.2271 60.2363 10.2222 60.2266 10.2222C59.9922 10.1538 59.7627 10.1538 59.5381 10.2222C59.5283 10.2319 59.5137 10.2368 59.4941 10.2368L59.4356 10.2661C59.4258 10.2661 59.416 10.2661 59.4063 10.2661C59.4063 10.2759 59.4063 10.2808 59.4063 10.2808C59.3965 10.2808 59.3818 10.2856 59.3623 10.2954L59.3477 10.3101C59.3477 10.3101 59.3428 10.3101 59.333 10.3101C59.3232 10.3198 59.3086 10.3296 59.2891 10.3394C59.2598 10.3589 59.2354 10.3735 59.2158 10.3833C59.2158 10.3833 59.2158 10.3882 59.2158 10.3979C59.1865 10.4175 59.1621 10.437 59.1426 10.4565C59.1328 10.4565 59.1279 10.4614 59.1279 10.4712C58.9522 10.6079 58.8203 10.769 58.7324 10.9546L50.9541 28.0933C50.8174 28.396 50.8076 28.6987 50.9248 29.0015C51.042 29.3042 51.252 29.5239 51.5547 29.6606C51.7109 29.7388 51.8721 29.7778 52.0381 29.7778C52.5068 29.7778 52.8682 29.5435 53.1221 29.0747L59.5527 14.895C59.6309 14.7583 59.7432 14.6899 59.8897 14.6899ZM61.7647 30.481H58C57.4531 30.481 56.9893 30.2905 56.6084 29.9097C56.2275 29.5288 56.0371 29.0649 56.0371 28.5181C56.0371 27.981 56.2275 27.522 56.6084 27.1411C56.9893 26.7603 57.4531 26.5698 58 26.5698H61.7647C62.3115 26.5698 62.7754 26.7603 63.1563 27.1411C63.5371 27.522 63.7275 27.981 63.7275 28.5181C63.7275 29.0649 63.5371 29.5288 63.1563 29.9097C62.7754 30.2905 62.3115 30.481 61.7647 30.481ZM58 27.2729C57.6484 27.2729 57.3506 27.395 57.1065 27.6392C56.8623 27.8833 56.7402 28.1763 56.7402 28.5181C56.7402 28.8696 56.8623 29.1675 57.1065 29.4116C57.3506 29.6558 57.6484 29.7778 58 29.7778H61.7647C62.1162 29.7778 62.4141 29.6558 62.6582 29.4116C62.9023 29.1675 63.0244 28.8696 63.0244 28.5181C63.0244 28.1763 62.9023 27.8833 62.6582 27.6392C62.4141 27.395 62.1162 27.2729 61.7647 27.2729H58Z" fill="white"/>
</svg>
