<svg width="19" height="25" viewBox="0 0 19 25" fill="none" xmlns="http://www.w3.org/2000/svg">
<path d="M18.796 10.3982C18.7278 10.2579 18.5854 10.1684 18.4299 10.1684H11.1446L11.9195 1.25498C11.9358 1.07499 11.8301 0.906186 11.6623 0.840061C11.4945 0.774977 11.3023 0.827858 11.1924 0.970229L0.209372 15.2075C0.114797 15.3305 0.0985256 15.4963 0.166661 15.6356C0.234796 15.7749 0.376151 15.8634 0.53173 15.8634H7.81515L7.04227 24.3691C7.026 24.5481 7.12972 24.7169 7.2965 24.784C7.34531 24.8033 7.39718 24.8125 7.44701 24.8125C7.56904 24.8125 7.687 24.7576 7.76633 24.6589L18.7494 10.8286C18.847 10.7066 18.8653 10.5398 18.7972 10.3984L18.796 10.3982ZM1.35943 15.0496L10.9898 2.56677L6.63436 13.0159H11.9223L8.02741 22.5241L8.66706 15.494C8.67723 15.3801 8.6396 15.2672 8.56232 15.1828C8.48503 15.0984 8.37622 15.0506 8.26233 15.0506H1.36134L1.35943 15.0496Z" fill="white"/>
</svg>
