<?xml version="1.0" standalone="no"?>
<!DOCTYPE svg PUBLIC "-//W3C//DTD SVG 20010904//EN"
 "http://www.w3.org/TR/2001/REC-SVG-20010904/DTD/svg10.dtd">
<svg version="1.0" xmlns="http://www.w3.org/2000/svg"
 width="500.000000pt" height="500.000000pt" viewBox="0 0 500.000000 500.000000"
 preserveAspectRatio="xMidYMid meet">
<metadata>
Created by potrace 1.14, written by Peter Selinger 2001-2017
</metadata>
<g transform="translate(0.000000,500.000000) scale(0.100000,-0.100000)"
fill="#000000" stroke="none">
<path d="M0 2500 l0 -2500 2500 0 2500 0 0 2500 0 2500 -2500 0 -2500 0 0
-2500z m3045 1495 c163 -429 300 -783 303 -787 4 -3 59 -10 122 -15 l115 -8
-135 -57 c-302 -127 -717 -275 -1055 -377 -291 -88 -1001 -252 -1138 -263 -36
-3 -54 10 -427 312 -250 202 -383 316 -373 319 9 2 390 22 846 45 l829 41 249
645 c351 907 361 932 365 928 2 -2 136 -355 299 -783z m1746 -402 c-14 -25
-277 -283 -397 -389 -807 -714 -1854 -1283 -2934 -1594 -280 -80 -597 -152
-880 -200 -185 -30 -472 -70 -478 -65 -2 1 46 45 105 97 327 286 633 605 747
775 32 49 48 64 71 67 17 3 91 15 165 26 464 71 1063 222 1615 404 655 218
1387 542 1896 840 52 30 95 55 97 55 1 1 -2 -7 -7 -16z m89 -113 c-61 -120
-255 -416 -397 -605 -236 -315 -463 -574 -754 -860 -750 -737 -1612 -1296
-2608 -1694 -139 -56 -255 -100 -257 -99 -1 2 44 71 102 153 238 339 434 676
518 888 l31 78 130 53 c444 181 1033 486 1495 774 622 389 1123 768 1635 1240
66 61 121 111 123 111 1 1 -7 -17 -18 -39z m-1096 -1677 c28 -94 367 -1386
364 -1389 -3 -3 -1136 733 -1156 751 -2 2 43 38 100 81 195 147 457 367 608
511 36 34 68 62 72 63 4 0 9 -8 12 -17z"/>
</g>
</svg>
